<?xml version="1.0" standalone="no"?>
<!DOCTYPE svg PUBLIC "-//W3C//DTD SVG 20010904//EN"
 "http://www.w3.org/TR/2001/REC-SVG-20010904/DTD/svg10.dtd">
<svg version="1.0" xmlns="http://www.w3.org/2000/svg"
 width="388.000000pt" height="388.000000pt" viewBox="0 0 388.000000 388.000000"
 preserveAspectRatio="xMidYMid meet">
<metadata>
Created by potrace 1.14, written by Peter Selinger 2001-2017
</metadata>
<g transform="translate(0.000000,388.000000) scale(0.100000,-0.100000)"
fill="#000000" stroke="none">
<path d="M1854 3330 c-29 -12 -45 -61 -34 -102 11 -38 25 -48 66 -48 66 0 92
91 39 138 -28 24 -38 25 -71 12z m58 -54 c7 -34 -9 -66 -32 -66 -20 0 -26 17
-21 65 3 40 46 41 53 1z"/>
<path d="M1634 3305 c-2 -5 -5 -30 -6 -55 l-3 -45 -29 48 c-23 40 -32 47 -50
41 -11 -4 -22 -8 -24 -9 -2 -2 6 -48 23 -122 4 -15 13 -23 26 -23 15 0 19 5
15 18 -3 9 -8 31 -11 47 -6 27 -4 26 20 -13 31 -50 49 -50 53 1 3 40 22 52 22
15 0 -32 14 -50 32 -43 13 5 14 13 6 48 -16 66 -16 71 -17 89 -1 13 -8 17 -27
16 -15 -2 -28 -7 -30 -13z"/>
<path d="M2225 3277 c-21 -57 -42 -137 -37 -142 13 -13 32 -3 38 21 6 23 10
25 40 19 27 -5 34 -3 34 9 0 9 -11 18 -25 22 -16 4 -25 13 -25 26 0 19 7 19
56 1 13 -5 30 15 21 23 -3 3 -26 12 -51 19 -36 11 -48 12 -51 2z"/>
<path d="M1340 3222 c-19 -9 -36 -17 -38 -18 -3 -1 56 -136 62 -142 6 -5 96
39 96 47 0 17 -14 19 -40 6 -15 -8 -30 -11 -34 -8 -14 14 -4 34 21 44 20 7 23
13 15 21 -8 8 -18 9 -36 0 -13 -6 -27 -8 -30 -5 -14 14 -4 29 24 40 33 12 41
33 13 32 -10 0 -34 -8 -53 -17z"/>
<path d="M2422 3170 c-42 -40 -41 -112 3 -132 51 -23 108 20 108 83 0 61 -66
90 -111 49z m76 -36 c3 -23 -33 -74 -53 -74 -30 0 -26 46 8 88 15 18 41 10 45
-14z"/>
<path d="M1133 3103 c-16 -8 -32 -18 -36 -23 -5 -4 11 -38 36 -74 l44 -67 37
34 c41 39 46 71 16 109 -24 32 -61 40 -97 21z m63 -40 c16 -21 18 -59 5 -68
-9 -5 -61 61 -61 77 0 15 43 8 56 -9z"/>
<path d="M2623 3023 c-54 -65 -58 -74 -42 -84 9 -5 22 0 38 14 l23 22 -4 -38
c-3 -27 1 -42 14 -54 17 -15 18 -14 18 16 0 21 6 34 18 38 27 10 52 35 52 53
0 14 -58 80 -71 80 -3 0 -24 -21 -46 -47z m74 -19 c9 -23 -13 -40 -32 -24 -12
10 -13 16 -4 26 15 18 28 18 36 -2z"/>
<path d="M834 2826 c-3 -8 1 -25 9 -38 8 -13 27 -42 41 -66 21 -34 30 -41 41
-32 7 6 11 20 8 30 -7 26 15 53 38 47 16 -4 36 19 26 30 -5 4 -138 43 -150 43
-4 0 -10 -6 -13 -14z m86 -47 c0 -18 -20 -18 -29 0 -9 16 -8 18 9 14 11 -3 20
-9 20 -14z"/>
<path d="M2930 2737 c-97 -18 -119 -27 -114 -42 4 -8 15 -15 26 -15 27 0 49
-30 38 -50 -5 -9 -4 -22 1 -31 8 -11 14 -9 34 16 89 107 93 138 15 122z m-2
-49 c-6 -18 -28 -21 -28 -4 0 9 7 16 16 16 9 0 14 -5 12 -12z"/>
<path d="M733 2640 c-18 -8 -53 -56 -53 -74 0 -3 31 -21 68 -40 l69 -35 16 35
c22 46 21 58 -5 89 -25 28 -62 38 -95 25z m65 -50 c12 -11 19 -27 16 -35 -8
-19 -5 -19 -51 8 -22 12 -38 28 -36 35 7 19 47 14 71 -8z"/>
<path d="M3040 2548 c-14 -6 -39 -18 -57 -26 -36 -16 -43 -34 -30 -75 13 -40
36 -48 88 -31 89 29 86 27 71 51 -6 10 -20 8 -61 -8 -36 -13 -57 -17 -64 -10
-18 18 1 39 53 56 37 12 50 21 46 32 -3 8 -6 17 -6 19 0 6 -13 4 -40 -8z"/>
<path d="M653 2402 c-19 -2 -37 -11 -42 -21 -8 -14 2 -25 55 -64 36 -26 69
-45 75 -42 13 9 11 33 -3 37 -16 6 -1 58 16 58 11 0 26 20 26 35 0 4 -69 2
-127 -3z m57 -42 c0 -16 -17 -20 -34 -7 -15 11 -15 13 8 15 14 1 26 -2 26 -8z"/>
<path d="M3132 2301 c3 -24 -1 -26 -57 -36 -42 -7 -60 -14 -60 -25 0 -16 36
-19 93 -7 29 6 34 4 42 -19 15 -37 33 -19 26 25 -14 78 -17 88 -32 88 -10 0
-14 -8 -12 -26z"/>
<path d="M1596 2269 c-82 -28 -165 -88 -271 -193 -108 -109 -125 -130 -141
-176 -25 -72 8 -129 81 -140 42 -6 55 -4 104 22 30 16 78 46 106 66 76 54 268
184 282 189 8 3 7 -8 -3 -38 -24 -67 -20 -120 11 -174 34 -57 78 -80 140 -70
64 9 98 15 125 20 36 8 172 66 191 82 8 7 20 13 26 13 5 0 18 9 27 19 17 19
17 19 -6 15 -18 -4 -17 -2 7 10 17 9 46 22 65 30 82 35 164 92 154 107 -3 5 6
9 20 9 14 0 28 5 32 11 18 30 -159 -23 -376 -111 -69 -29 -150 -61 -180 -72
-59 -22 -170 -32 -170 -16 0 5 15 46 33 91 54 130 56 140 41 176 -7 17 -18 31
-24 31 -21 0 -25 2 -40 15 -13 11 -46 -8 -230 -132 -201 -136 -308 -198 -319
-188 -2 3 3 13 12 23 10 9 33 37 53 62 54 67 229 225 272 246 20 10 57 19 82
20 52 2 65 24 28 48 -39 25 -71 27 -132 5z m884 -229 c0 -5 -10 -10 -22 -10
-19 0 -20 2 -8 10 19 13 30 13 30 0z m-85 -20 c-27 -12 -43 -12 -25 0 8 5 22
9 30 9 10 0 8 -3 -5 -9z m-95 -34 c0 -2 -7 -7 -16 -10 -8 -3 -12 -2 -9 4 6 10
25 14 25 6z m-50 -20 c0 -2 -7 -7 -16 -10 -8 -3 -12 -2 -9 4 6 10 25 14 25 6z
m-140 -101 c0 -11 -57 -26 -110 -30 -61 -3 -59 -2 20 19 58 16 90 19 90 11z"/>
<path d="M570 2187 c0 -18 10 -26 53 -42 l52 -19 -57 -10 c-50 -8 -58 -12 -58
-31 l0 -23 80 20 c70 18 80 23 80 43 0 16 -10 26 -37 37 -21 9 -55 23 -75 32
-38 16 -38 16 -38 -7z"/>
<path d="M3047 2070 c-21 -9 -13 -35 11 -36 12 -1 27 -2 32 -3 6 0 10 -12 10
-26 0 -22 -4 -25 -36 -25 -28 0 -35 -3 -32 -17 3 -15 16 -18 81 -21 72 -3 77
-1 77 18 0 16 -6 20 -31 20 -27 0 -30 3 -27 28 2 22 7 27 29 25 19 -1 28 4 32
18 3 10 0 19 -6 20 -52 4 -130 3 -140 -1z"/>
<path d="M640 1941 c-41 -20 -76 -41 -77 -48 -4 -16 23 -30 83 -43 27 -6 57
-13 67 -16 12 -4 17 0 17 14 0 11 -9 22 -20 25 -24 6 -27 45 -4 62 9 6 15 18
13 27 -3 13 -17 9 -79 -21z m20 -45 c0 -9 -7 -12 -21 -9 -16 4 -17 8 -7 14 19
13 28 11 28 -5z"/>
<path d="M3026 1814 c-9 -8 -16 -18 -17 -22 0 -4 -2 -15 -4 -25 -5 -27 36 -67
75 -73 69 -11 113 64 65 112 -29 29 -94 33 -119 8z m111 -51 c12 -32 -47 -44
-84 -18 -24 17 -21 42 5 48 25 5 73 -13 79 -30z"/>
<path d="M2956 1603 c-6 -15 8 -32 27 -33 21 0 -3 -26 -29 -30 -18 -3 -30 -12
-32 -24 -3 -16 0 -18 22 -12 19 5 31 0 49 -20 36 -38 67 -30 94 26 l23 45 -53
24 c-91 40 -95 41 -101 24z m104 -79 c0 -18 -28 -30 -41 -17 -5 5 -7 17 -4 25
8 19 45 12 45 -8z"/>
<path d="M744 1555 c-8 -13 -13 -32 -10 -42 3 -10 2 -24 -3 -32 -12 -19 -33
-4 -26 18 3 10 3 26 -1 35 -9 23 -34 2 -34 -29 0 -26 35 -75 54 -75 21 0 48
37 46 62 -4 39 -1 48 16 48 13 0 15 -7 11 -28 -7 -36 8 -64 23 -42 25 38 -2
110 -40 110 -11 0 -27 -11 -36 -25z"/>
<path d="M2870 1402 c-25 -8 -59 -54 -55 -74 9 -43 37 -50 86 -21 22 13 32 14
41 5 8 -8 5 -14 -14 -21 -34 -13 -45 -41 -15 -41 28 0 41 9 56 37 17 33 13 52
-13 65 -20 9 -31 7 -61 -11 -29 -17 -37 -18 -41 -6 -8 19 4 35 21 29 7 -3 18
3 24 14 12 22 -2 33 -29 24z"/>
<path d="M875 1370 c-10 -19 -22 -30 -30 -27 -19 8 -55 -21 -55 -45 0 -16 15
-45 46 -87 6 -7 124 82 124 94 0 21 -13 25 -36 11 -29 -20 -35 -11 -18 29 11
28 11 35 -1 45 -11 9 -17 5 -30 -20z m-11 -77 c8 -20 -14 -36 -31 -22 -14 12
-6 39 12 39 7 0 16 -8 19 -17z"/>
<path d="M1024 1216 c-3 -8 4 -24 16 -36 21 -21 19 -40 -4 -40 -8 0 -19 7 -26
15 -7 8 -16 15 -21 15 -14 0 -10 -22 8 -42 13 -14 14 -21 5 -30 -9 -9 -17 -7
-32 10 -12 12 -25 22 -30 22 -21 0 -8 -29 26 -58 l36 -31 31 33 c18 18 42 44
55 57 l22 26 -40 37 c-31 28 -42 34 -46 22z"/>
<path d="M2624 1135 c-3 -8 -3 -19 0 -24 8 -12 -31 -34 -48 -28 -17 7 -40 -8
-32 -21 12 -19 127 -81 141 -76 19 8 19 3 -7 90 -22 70 -42 92 -54 59z m26
-86 c11 -19 10 -20 -9 -9 -12 6 -21 15 -21 20 0 18 19 11 30 -11z"/>
<path d="M1182 1010 c-28 -44 -34 -50 -51 -40 -25 13 -31 13 -31 -2 1 -18 101
-81 112 -70 5 5 0 16 -11 26 -19 18 -19 19 16 68 29 40 33 52 22 59 -22 14
-24 12 -57 -41z"/>
<path d="M2438 1009 c-17 -9 -17 -12 3 -51 21 -41 18 -42 -33 -6 -29 20 -54
23 -63 8 -6 -9 55 -139 65 -140 3 0 11 4 18 9 12 7 11 14 -3 41 -22 43 -14 48
28 16 34 -26 68 -27 67 -2 -1 6 -15 39 -33 73 -27 52 -35 60 -49 52z"/>
<path d="M1344 913 c-16 -37 -30 -70 -32 -74 -2 -3 6 -9 16 -11 16 -5 25 7 51
65 24 54 28 73 19 79 -21 13 -24 10 -54 -59z"/>
<path d="M1510 890 c7 -25 5 -32 -11 -41 -15 -8 -19 -19 -17 -42 3 -33 22 -47
78 -60 25 -6 27 -3 44 63 9 38 15 74 11 80 -11 17 -25 11 -35 -16 -12 -31 -25
-25 -33 16 -5 21 -12 30 -26 30 -17 0 -18 -4 -11 -30z m47 -76 c9 -23 -13 -40
-32 -24 -12 10 -13 16 -4 26 15 18 28 18 36 -2z"/>
<path d="M2183 906 c-36 -16 -48 -44 -39 -92 9 -42 46 -64 94 -54 18 4 35 10
38 13 10 10 -33 142 -47 144 -8 1 -28 -4 -46 -11z m44 -74 c11 -41 11 -42 -12
-42 -20 0 -25 7 -31 34 -12 69 23 75 43 8z"/>
<path d="M1746 862 c-6 -10 -36 -127 -36 -142 0 -6 8 -10 17 -8 11 2 22 20 29
48 8 30 13 38 14 23 1 -13 4 -27 5 -33 1 -5 3 -17 4 -25 0 -8 10 -15 21 -15
14 0 21 9 26 35 3 19 10 38 15 41 5 3 9 2 8 -3 -6 -32 3 -72 17 -77 9 -4 19
-5 21 -2 2 2 -1 40 -7 83 -10 67 -15 79 -31 79 -13 0 -23 -12 -32 -41 l-14
-40 -7 43 c-6 32 -12 42 -26 42 -10 0 -21 -3 -24 -8z"/>
</g>
</svg>
